<svg xmlns="http://www.w3.org/2000/svg" viewBox="0 0 343.22 537.48"><defs><style>.cls-1{fill:#ff7300;}.cls-2{fill:#fb8;}.cls-3{fill:#ffe5d2;}.cls-4{fill:#fff;}</style></defs><title>cotch</title><g id="レイヤー_2" data-name="レイヤー 2"><g id="レイヤー_1-2" data-name="レイヤー 1"><rect class="cls-1" x="1.94" width="339.35" height="339.35" rx="42.26"/><path class="cls-2" d="M232.08,88.68l-18-1.7,0,0L202.44,71.37a0,0,0,0,1,0-.05l15.84-31.18a10.18,10.18,0,0,1,12.95-5,10,10,0,0,1,4.94,13.62l-.35.68A5.8,5.8,0,0,0,237.71,57a5.59,5.59,0,0,0,8-2.21l.19-.35c5.68-11.2,1.1-24.9-10.52-29.68a21.16,21.16,0,0,0-26.87,10l-16,31.52s0,0,0,0L173,66.1h0l-12-13.55a1.69,1.69,0,0,0-2.87.6L83.9,280h0l-15,29.51a3,3,0,0,0,1.3,4l4.7,2.39a3,3,0,0,0,4-1.29l15-29.53h0L233.29,91.35A1.69,1.69,0,0,0,232.08,88.68Z"/><path class="cls-3" d="M251.07,103.11l-17.8-3.27s0,0,0,0L223.05,83.28a0,0,0,0,1,0,0l18.5-29.68a10.19,10.19,0,0,1,13.34-3.83,9.94,9.94,0,0,1,3.73,14l-.41.65A5.79,5.79,0,0,0,259.44,72a5.61,5.61,0,0,0,8.13-1.5l.21-.34c6.64-10.66,3.27-24.71-7.89-30.49a21.15,21.15,0,0,0-27.63,7.6l-18.7,30s0,0-.05,0l-19.37-1.86h0L183.34,60.91a1.7,1.7,0,0,0-2.92.34L86.77,280.77h0l-17.5,28.09a3,3,0,0,0,1,4.08l4.47,2.79a3,3,0,0,0,4.08-1l17.51-28.11h0l155.76-180.8A1.69,1.69,0,0,0,251.07,103.11Z"/><path class="cls-4" d="M268.73,119.13l-17.45-4.8,0,0L242.54,97a.07.07,0,0,1,0,0l21-28a10.21,10.21,0,0,1,13.63-2.66,10,10,0,0,1,2.49,14.28l-.46.61a5.78,5.78,0,0,0,.55,7.73,5.6,5.6,0,0,0,8.23-.78l.24-.32c7.55-10,5.41-24.33-5.2-31.06a21.16,21.16,0,0,0-28.19,5.16L233.61,90.16l-.05,0-19.13-3.54,0,0L204.93,71.2a1.69,1.69,0,0,0-2.93.08L89.57,281.8h0L69.68,308.26a3,3,0,0,0,.59,4.14l4.22,3.17a3,3,0,0,0,4.14-.59l19.9-26.47h0L269.46,122A1.7,1.7,0,0,0,268.73,119.13Z"/><path class="cls-1" d="M57.34,499.75v7.65a27.53,27.53,0,0,1-2.17,10.86,30.13,30.13,0,0,1-6,9.12,28.85,28.85,0,0,1-9,6.34,26.14,26.14,0,0,1-11,2.35,40,40,0,0,1-10.25-1.39,24.29,24.29,0,0,1-9.38-4.87,26.91,26.91,0,0,1-6.87-8.95C.9,517.22,0,512.55,0,506.88V438.76a30.19,30.19,0,0,1,2.08-11.3,26.75,26.75,0,0,1,5.91-9,27.46,27.46,0,0,1,9.13-6,30.78,30.78,0,0,1,11.73-2.17q12.51,0,20.33,8.17a29.12,29.12,0,0,1,6,9.47,32,32,0,0,1,2.17,11.9v6.95H39.62v-5.91a14.4,14.4,0,0,0-2.95-9,9.59,9.59,0,0,0-8-3.82q-6.6,0-8.77,4.08a21.86,21.86,0,0,0-2.18,10.34v63.25a16.45,16.45,0,0,0,2.35,9q2.34,3.64,8.43,3.65a13.06,13.06,0,0,0,3.73-.61,11.23,11.23,0,0,0,3.74-2,10.74,10.74,0,0,0,2.61-3.82,15.63,15.63,0,0,0,1-6.09v-6.08Z"/><path class="cls-1" d="M70.72,440.5a31.59,31.59,0,0,1,2.61-13.21,27.94,27.94,0,0,1,7-9.56,29.57,29.57,0,0,1,9.47-5.56,31.56,31.56,0,0,1,31,5.56,29.2,29.2,0,0,1,6.78,9.56,31.74,31.74,0,0,1,2.6,13.21v65.33a31.4,31.4,0,0,1-2.6,13.38,27.59,27.59,0,0,1-6.78,9.21,29.89,29.89,0,0,1-9.65,5.74,30.84,30.84,0,0,1-21.37,0,28,28,0,0,1-9.47-5.74,26.46,26.46,0,0,1-7-9.21,31.24,31.24,0,0,1-2.61-13.38Zm17.73,65.33q0,6.44,3.56,9.47a13.17,13.17,0,0,0,16.86,0q3.55-3,3.56-9.47V440.5q0-6.44-3.56-9.47A13.21,13.21,0,0,0,92,431q-3.57,3-3.56,9.47Z"/><path class="cls-1" d="M152.29,535.58l11.47-106.43L143.37,427l1.79-16.59,58.4,6.29-1.79,16.59-20.39-2.2L169.92,537.48Z"/><path class="cls-1" d="M271.46,499.75v7.65a27.71,27.71,0,0,1-2.17,10.86,30,30,0,0,1-6,9.12,28.73,28.73,0,0,1-9,6.34,26.09,26.09,0,0,1-11,2.35,39.92,39.92,0,0,1-10.25-1.39,24.26,24.26,0,0,1-9.39-4.87,26.75,26.75,0,0,1-6.86-8.95c-1.8-3.64-2.69-8.31-2.69-14V438.76a30.19,30.19,0,0,1,2.08-11.3,26.61,26.61,0,0,1,5.91-9,27.52,27.52,0,0,1,9.12-6A30.78,30.78,0,0,1,243,410.26q12.51,0,20.33,8.17a29,29,0,0,1,6,9.47,32.16,32.16,0,0,1,2.17,11.9v6.95H253.73v-5.91a14.34,14.34,0,0,0-2.95-9,9.56,9.56,0,0,0-8-3.82q-6.61,0-8.78,4.08a21.86,21.86,0,0,0-2.17,10.34v63.25a16.37,16.37,0,0,0,2.35,9q2.34,3.64,8.42,3.65a13.07,13.07,0,0,0,3.74-.61,11.09,11.09,0,0,0,3.73-2,10.49,10.49,0,0,0,2.61-3.82,15.45,15.45,0,0,0,1-6.09v-6.08Z"/><path class="cls-1" d="M285.88,535V411.3h17.73v53H325.5v-53h17.72V535H325.5V479.94H303.61V535Z"/></g></g></svg>