<svg xmlns="http://www.w3.org/2000/svg" xmlns:xlink="http://www.w3.org/1999/xlink" viewBox="0 0 343.22 537.48"><defs><style>.cls-1{fill:url(#名称未設定グラデーション_12);}.cls-2{fill:none;}.cls-3,.cls-4,.cls-5{fill:#fff;}.cls-3{opacity:0.2;}.cls-4{opacity:0.5;}.cls-6{fill:#ff7300;}.cls-7{fill:url(#名称未設定グラデーション_12-2);}</style><linearGradient id="名称未設定グラデーション_12" x1="1.94" y1="169.67" x2="341.29" y2="169.67" gradientUnits="userSpaceOnUse"><stop offset="0" stop-color="#ff7300"/><stop offset="1" stop-color="#ff4449"/></linearGradient><linearGradient id="名称未設定グラデーション_12-2" x1="-142.94" y1="1343.89" x2="200.28" y2="1343.89" gradientTransform="translate(142.94 -870.02)" xlink:href="#名称未設定グラデーション_12"/></defs><title>cotch</title><g id="レイヤー_2" data-name="レイヤー 2"><g id="レイヤー_1-2" data-name="レイヤー 1"><rect class="cls-1" x="1.94" width="339.35" height="339.35" rx="42.26"/><path class="cls-2" d="M213.56,77.3l18.7-30A20.65,20.65,0,0,1,237,42a9.9,9.9,0,0,0-5.74-6.86,10.18,10.18,0,0,0-12.95,5L202.84,70.53a1.68,1.68,0,0,1,2.09.67l3.46,5.63,5.12.49S213.55,77.32,213.56,77.3Z"/><path class="cls-2" d="M254.89,49.72a9.63,9.63,0,0,0-7.09-.79,23,23,0,0,1-1.94,5.5l-.19.35A5.59,5.59,0,0,1,239,57.59l-16,25.64a0,0,0,0,0,0,0l3,4.83,6.06.57a1.67,1.67,0,0,1,1.51,1.49h0L254.85,61.9A20.77,20.77,0,0,1,260,57.05,9.93,9.93,0,0,0,254.89,49.72Z"/><path class="cls-3" d="M78,315.57l.17-.13-.1.07Z"/><path class="cls-3" d="M76.61,316.14l-.2,0,.45-.06h-.12Z"/><path class="cls-3" d="M77.14,316a.76.76,0,0,1-.16.06l.4-.13-.08,0Z"/><path class="cls-3" d="M78.47,315.17a1.49,1.49,0,0,0,.12-.14l-.08.09Z"/><path class="cls-3" d="M76.07,316.15h-.24a3.91,3.91,0,0,0,.49,0h-.25Z"/><path class="cls-3" d="M232.08,88.68,226,88.11l.47.76,7.07,1.31h0A1.67,1.67,0,0,0,232.08,88.68Z"/><path class="cls-3" d="M75,315.86l-.27-.13-4.47-2.79a3,3,0,0,1-1-4.08l17.5-28.09h0L178.34,66.15,173,66.1h0l-12-13.55a1.69,1.69,0,0,0-2.87.6L83.9,280h0l-15,29.51a3,3,0,0,0,1.3,4l4.7,2.39c.09.05.19.07.28.11l-.16-.08Z"/><path class="cls-3" d="M77.65,315.81l-.12.07.33-.19,0,0Z"/><path class="cls-3" d="M194.14,75.46l5.35.52,2.51-4.7a1.74,1.74,0,0,1,.84-.75l15.44-30.39a10.18,10.18,0,0,1,12.95-5A9.9,9.9,0,0,1,237,42a21.07,21.07,0,0,1,10.25-4.44,20.72,20.72,0,0,0-11.88-12.83,21.16,21.16,0,0,0-26.87,10l-16,31.52s0,0,0,0l-5.15,0,6.84,9.23Z"/><path class="cls-3" d="M245.67,54.78l.19-.35a23,23,0,0,0,1.94-5.5,10.56,10.56,0,0,0-6.25,4.62l-2.52,4A5.59,5.59,0,0,0,245.67,54.78Z"/><path class="cls-3" d="M75.51,316.06l-.24-.06a2.85,2.85,0,0,0,.48.13l-.17-.05Z"/><path class="cls-4" d="M78.3,315.34a1.37,1.37,0,0,0,.17-.17.93.93,0,0,1-.14.14Z"/><path class="cls-4" d="M263.56,68.94l-2.86,3.8a5.62,5.62,0,0,0,6.87-2.21l.21-.34a22.58,22.58,0,0,0,2.42-5.31A10.57,10.57,0,0,0,263.56,68.94Z"/><path class="cls-4" d="M75.27,316l-.08,0Z"/><path class="cls-4" d="M77.53,315.88l-.15.07Z"/><path class="cls-4" d="M77,316.08l-.12,0Z"/><path class="cls-4" d="M78,315.57l-.18.12Z"/><path class="cls-4" d="M252.05,105.87a1.69,1.69,0,0,0-1-2.76l-6-1.1,3.79,7.55Z"/><path class="cls-4" d="M76.41,316.17h0Z"/><path class="cls-4" d="M75.83,316.14h0Z"/><path class="cls-3" d="M77.83,315.71l0,0,.18-.12.07-.06A2.83,2.83,0,0,1,77.83,315.71Z"/><path class="cls-4" d="M77.83,315.71l0,0,.18-.12.07-.06A2.83,2.83,0,0,1,77.83,315.71Z"/><path class="cls-3" d="M75.58,316.08l.17.05h.32A2.63,2.63,0,0,1,75.58,316.08Z"/><path class="cls-4" d="M75.58,316.08l.17.05h.32A2.63,2.63,0,0,1,75.58,316.08Z"/><path class="cls-4" d="M259.89,39.7A21.19,21.19,0,0,0,237,42a20.65,20.65,0,0,0-4.71,5.28l-18.7,30s0,0-.05,0l-5.12-.49,6,9.79,0,0,4.14.76,7.92,1.47-.47-.76-3-4.83a0,0,0,0,1,0,0l16-25.64,2.52-4a10.56,10.56,0,0,1,6.25-4.62,9.63,9.63,0,0,1,7.09.79A9.93,9.93,0,0,1,260,57.05a21.11,21.11,0,0,1,10.59-3.52A20.71,20.71,0,0,0,259.89,39.7Z"/><path class="cls-4" d="M194.14,75.46h0l-6.84-9.23-3.93-5.31a1.7,1.7,0,0,0-2.92.34l-2.08,4.9L86.77,280.77h0l-17.5,28.09a3,3,0,0,0,1,4.08l4.47,2.79.27.13a2.59,2.59,0,0,1-.47-.29l-4.22-3.17a3,3,0,0,1-.59-4.14l19.89-26.45h0L199.49,76Z"/><path class="cls-3" d="M75,315.89l.16.08.08,0,.24.06A3.06,3.06,0,0,1,75,315.89Z"/><path class="cls-4" d="M75,315.89l.16.08.08,0,.24.06A3.06,3.06,0,0,1,75,315.89Z"/><path class="cls-3" d="M76.16,316.16h.25l.2,0A2.26,2.26,0,0,1,76.16,316.16Z"/><path class="cls-4" d="M76.16,316.16h.25l.2,0A2.26,2.26,0,0,1,76.16,316.16Z"/><path class="cls-3" d="M78.33,315.31a.93.93,0,0,0,.14-.14l0-.05Z"/><path class="cls-4" d="M78.33,315.31a.93.93,0,0,0,.14-.14l0-.05Z"/><path class="cls-3" d="M76.74,316.12h.12l.12,0a.76.76,0,0,0,.16-.06A1.8,1.8,0,0,1,76.74,316.12Z"/><path class="cls-4" d="M76.74,316.12h.12l.12,0a.76.76,0,0,0,.16-.06A1.8,1.8,0,0,1,76.74,316.12Z"/><path class="cls-3" d="M77.3,316l.08,0,.15-.07.12-.07A2.72,2.72,0,0,1,77.3,316Z"/><path class="cls-4" d="M77.3,316l.08,0,.15-.07.12-.07A2.72,2.72,0,0,1,77.3,316Z"/><path class="cls-5" d="M283,56.74a21.23,21.23,0,0,0-28.19,5.16L233.61,90.16h-.05l-7.07-1.31-7.92-1.47-4.14-.76,0,0-6-9.79-3.46-5.63a1.68,1.68,0,0,0-2.09-.67,1.74,1.74,0,0,0-.84.75L199.49,76,89.57,281.8h0L69.68,308.26a3,3,0,0,0,.59,4.14l4.22,3.17a2.59,2.59,0,0,0,.47.29l.07,0a3.06,3.06,0,0,0,.48.17l.07,0a2.63,2.63,0,0,0,.49.07h.09a2.26,2.26,0,0,0,.45,0l.13,0a1.8,1.8,0,0,0,.4-.1l.16,0a2.72,2.72,0,0,0,.35-.16l.18-.1a2.83,2.83,0,0,0,.28-.2l.1-.07.09-.1,0,0,.18-.19.08-.09,0,0,19.9-26.47h0L269.46,122a1.7,1.7,0,0,0-.73-2.85l-17.45-4.8,0,0-2.38-4.75L245.08,102,242.54,97a.07.07,0,0,1,0,0L260.7,72.74l2.86-3.8a10.57,10.57,0,0,1,6.64-4.06,9.66,9.66,0,0,1,7,1.4,10,10,0,0,1,2.49,14.28l-.46.61a5.78,5.78,0,0,0,.55,7.73,5.6,5.6,0,0,0,8.23-.78l.24-.32C295.79,77.76,293.65,63.47,283,56.74Z"/><path class="cls-6" d="M57.34,499.75v7.65a27.53,27.53,0,0,1-2.17,10.86,30.13,30.13,0,0,1-6,9.12,28.85,28.85,0,0,1-9,6.34,26.14,26.14,0,0,1-11,2.35,40,40,0,0,1-10.25-1.39,24.29,24.29,0,0,1-9.38-4.87,26.91,26.91,0,0,1-6.87-8.95C.9,517.22,0,512.55,0,506.88V438.76a30.19,30.19,0,0,1,2.08-11.3,26.75,26.75,0,0,1,5.91-9,27.46,27.46,0,0,1,9.13-6,30.78,30.78,0,0,1,11.73-2.17q12.51,0,20.33,8.17a29.12,29.12,0,0,1,6,9.47,32,32,0,0,1,2.17,11.9v6.95H39.62v-5.91a14.4,14.4,0,0,0-2.95-9,9.59,9.59,0,0,0-8-3.82q-6.6,0-8.77,4.08a21.86,21.86,0,0,0-2.18,10.34v63.25a16.45,16.45,0,0,0,2.35,9q2.34,3.64,8.43,3.65a13.06,13.06,0,0,0,3.73-.61,11.23,11.23,0,0,0,3.74-2,10.74,10.74,0,0,0,2.61-3.82,15.63,15.63,0,0,0,1-6.09v-6.08Z"/><path class="cls-6" d="M70.72,440.5a31.59,31.59,0,0,1,2.61-13.21,27.94,27.94,0,0,1,7-9.56,29.57,29.57,0,0,1,9.47-5.56,31.56,31.56,0,0,1,31,5.56,29.2,29.2,0,0,1,6.78,9.56,31.74,31.74,0,0,1,2.6,13.21v65.33a31.4,31.4,0,0,1-2.6,13.38,27.59,27.59,0,0,1-6.78,9.21,29.89,29.89,0,0,1-9.65,5.74,30.84,30.84,0,0,1-21.37,0,28,28,0,0,1-9.47-5.74,26.46,26.46,0,0,1-7-9.21,31.24,31.24,0,0,1-2.61-13.38Zm17.73,65.33q0,6.44,3.56,9.47a13.17,13.17,0,0,0,16.86,0q3.55-3,3.56-9.47V440.5q0-6.44-3.56-9.47A13.21,13.21,0,0,0,92,431q-3.57,3-3.56,9.47Z"/><path class="cls-6" d="M152.29,535.58l11.47-106.43L143.37,427l1.79-16.59,58.4,6.29-1.79,16.59-20.39-2.2L169.92,537.48Z"/><path class="cls-6" d="M271.46,499.75v7.65a27.71,27.71,0,0,1-2.17,10.86,30,30,0,0,1-6,9.12,28.73,28.73,0,0,1-9,6.34,26.09,26.09,0,0,1-11,2.35,39.92,39.92,0,0,1-10.25-1.39,24.26,24.26,0,0,1-9.39-4.87,26.75,26.75,0,0,1-6.86-8.95c-1.8-3.64-2.69-8.31-2.69-14V438.76a30.19,30.19,0,0,1,2.08-11.3,26.61,26.61,0,0,1,5.91-9,27.52,27.52,0,0,1,9.12-6A30.78,30.78,0,0,1,243,410.26q12.51,0,20.33,8.17a29,29,0,0,1,6,9.47,32.16,32.16,0,0,1,2.17,11.9v6.95H253.73v-5.91a14.34,14.34,0,0,0-2.95-9,9.56,9.56,0,0,0-8-3.82q-6.61,0-8.78,4.08a21.86,21.86,0,0,0-2.17,10.34v63.25a16.37,16.37,0,0,0,2.35,9q2.34,3.64,8.42,3.65a13.07,13.07,0,0,0,3.74-.61,11.09,11.09,0,0,0,3.73-2,10.49,10.49,0,0,0,2.61-3.82,15.45,15.45,0,0,0,1-6.09v-6.08Z"/><path class="cls-6" d="M285.88,535V411.3h17.73v53H325.5v-53h17.72V535H325.5V479.94H303.61V535Z"/><path class="cls-7" d="M57.34,499.75v7.65a27.53,27.53,0,0,1-2.17,10.86,30.13,30.13,0,0,1-6,9.12,28.85,28.85,0,0,1-9,6.34,26.14,26.14,0,0,1-11,2.35,40,40,0,0,1-10.25-1.39,24.29,24.29,0,0,1-9.38-4.87,26.91,26.91,0,0,1-6.87-8.95C.9,517.22,0,512.55,0,506.88V438.76a30.19,30.19,0,0,1,2.08-11.3,26.75,26.75,0,0,1,5.91-9,27.46,27.46,0,0,1,9.13-6,30.78,30.78,0,0,1,11.73-2.17q12.51,0,20.33,8.17a29.12,29.12,0,0,1,6,9.47,32,32,0,0,1,2.17,11.9v6.95H39.62v-5.91a14.4,14.4,0,0,0-2.95-9,9.59,9.59,0,0,0-8-3.82q-6.6,0-8.77,4.08a21.86,21.86,0,0,0-2.18,10.34v63.25a16.45,16.45,0,0,0,2.35,9q2.34,3.64,8.43,3.65a13.06,13.06,0,0,0,3.73-.61,11.23,11.23,0,0,0,3.74-2,10.74,10.74,0,0,0,2.61-3.82,15.63,15.63,0,0,0,1-6.09v-6.08Z"/><path class="cls-7" d="M70.72,440.5a31.59,31.59,0,0,1,2.61-13.21,27.94,27.94,0,0,1,7-9.56,29.57,29.57,0,0,1,9.47-5.56,31.56,31.56,0,0,1,31,5.56,29.2,29.2,0,0,1,6.78,9.56,31.74,31.74,0,0,1,2.6,13.21v65.33a31.4,31.4,0,0,1-2.6,13.38,27.59,27.59,0,0,1-6.78,9.21,29.89,29.89,0,0,1-9.65,5.74,30.84,30.84,0,0,1-21.37,0,28,28,0,0,1-9.47-5.74,26.46,26.46,0,0,1-7-9.21,31.24,31.24,0,0,1-2.61-13.38Zm17.73,65.33q0,6.44,3.56,9.47a13.17,13.17,0,0,0,16.86,0q3.55-3,3.56-9.47V440.5q0-6.44-3.56-9.47A13.21,13.21,0,0,0,92,431q-3.57,3-3.56,9.47Z"/><path class="cls-7" d="M152.29,535.58l11.47-106.43L143.37,427l1.79-16.59,58.4,6.29-1.79,16.59-20.39-2.2L169.92,537.48Z"/><path class="cls-7" d="M271.46,499.75v7.65a27.71,27.71,0,0,1-2.17,10.86,30,30,0,0,1-6,9.12,28.73,28.73,0,0,1-9,6.34,26.09,26.09,0,0,1-11,2.35,39.92,39.92,0,0,1-10.25-1.39,24.26,24.26,0,0,1-9.39-4.87,26.75,26.75,0,0,1-6.86-8.95c-1.8-3.64-2.69-8.31-2.69-14V438.76a30.19,30.19,0,0,1,2.08-11.3,26.61,26.61,0,0,1,5.91-9,27.52,27.52,0,0,1,9.12-6A30.78,30.78,0,0,1,243,410.26q12.51,0,20.33,8.17a29,29,0,0,1,6,9.47,32.16,32.16,0,0,1,2.17,11.9v6.95H253.73v-5.91a14.34,14.34,0,0,0-2.95-9,9.56,9.56,0,0,0-8-3.82q-6.61,0-8.78,4.08a21.86,21.86,0,0,0-2.17,10.34v63.25a16.37,16.37,0,0,0,2.35,9q2.34,3.64,8.42,3.65a13.07,13.07,0,0,0,3.74-.61,11.09,11.09,0,0,0,3.73-2,10.49,10.49,0,0,0,2.61-3.82,15.45,15.45,0,0,0,1-6.09v-6.08Z"/><path class="cls-7" d="M285.88,535V411.3h17.73v53H325.5v-53h17.72V535H325.5V479.94H303.61V535Z"/></g></g></svg>