<svg xmlns="http://www.w3.org/2000/svg" viewBox="0 0 84.5 332.63"><defs><style>.cls-1{fill:#fff;}</style></defs><title>loading</title><g id="レイヤー_2" data-name="レイヤー 2"><g id="レイヤー_1-2" data-name="レイヤー 1"><path class="cls-1" d="M82.18,58.61,65.34,65.26h0L47.89,56.6a.08.08,0,0,1,0-.05v-35a10.21,10.21,0,0,1,9.3-10.32,10,10,0,0,1,10.58,9.93v.76a5.8,5.8,0,0,0,5.09,5.86A5.6,5.6,0,0,0,79,22.19v-.4C79,9.22,68.66-.93,56.12.07A21.17,21.17,0,0,0,36.66,21.15V56.54l0,0L19.2,65.25h0L2.32,58.61A1.69,1.69,0,0,0,0,60.44L36.65,296.53h0v33.13a3,3,0,0,0,3,3h5.28a3,3,0,0,0,3-3V296.51h0L84.48,60.44A1.69,1.69,0,0,0,82.18,58.61Z"/></g></g></svg>