<svg xmlns="http://www.w3.org/2000/svg" viewBox="0 0 133.22 331.6"><defs><style>.cls-1{fill:none;}.cls-2,.cls-3,.cls-4{fill:#fff;}.cls-2{opacity:0.2;}.cls-3{opacity:0.5;}</style></defs><title>loading</title><g id="レイヤー_2" data-name="レイヤー 2"><g id="レイヤー_1-2" data-name="レイヤー 1"><path class="cls-1" d="M60.53,56.86l4.36-35.08A20.93,20.93,0,0,1,67,15a9.89,9.89,0,0,0-8.09-3.81,10.18,10.18,0,0,0-9.66,10L48,55.22A1.67,1.67,0,0,1,50.14,55l5.5,3.66L60.5,56.9S60.53,56.88,60.53,56.86Z"/><path class="cls-1" d="M86.45,14.47a9.56,9.56,0,0,0-6.76,2.26,22.75,22.75,0,0,1,.54,5.81l0,.39a5.59,5.59,0,0,1-4.85,5.34l-3.72,30s0,0,0,0l4.72,3.13,5.74-2a1.67,1.67,0,0,1,2,.72h0l7.4-34.57A20.88,20.88,0,0,1,94.17,19,9.9,9.9,0,0,0,86.45,14.47Z"/><path class="cls-2" d="M37.64,330l.1-.19-.06.1A.36.36,0,0,1,37.64,330Z"/><path class="cls-2" d="M36.59,331.13l-.18.11a2.55,2.55,0,0,0,.39-.24l-.11.07Z"/><path class="cls-2" d="M37,330.8l-.12.12a2.68,2.68,0,0,0,.3-.28l-.06.05Z"/><path class="cls-2" d="M37.87,329.47a1.21,1.21,0,0,1,.05-.18s0,.08,0,.12A.13.13,0,0,0,37.87,329.47Z"/><path class="cls-2" d="M36.1,331.38l-.22.08a2.11,2.11,0,0,0,.45-.18.94.94,0,0,1-.15.06Z"/><path class="cls-2" d="M82.12,59.4l-5.74,2,.74.5,7-1.79a0,0,0,0,0,0,0A1.67,1.67,0,0,0,82.12,59.4Z"/><path class="cls-2" d="M35,331.57a1.51,1.51,0,0,1-.3,0l-5.23-.65a3,3,0,0,1-2.57-3.3L31,294.77h0L23.88,61.54,19,63.75h0L2.37,56.5A1.69,1.69,0,0,0,0,58.25l28,237h0l-1.2,33.07a3,3,0,0,0,2.84,3.06l5.28.2.3,0H35Z"/><path class="cls-2" d="M37.39,330.4a1,1,0,0,1-.08.11,3.46,3.46,0,0,0,.22-.31l0,0Z"/><path class="cls-2" d="M42.14,63.35l5.07-1.78.3-5.31a1.71,1.71,0,0,1,.45-1L49.2,21.15a10.18,10.18,0,0,1,9.66-9.95A9.89,9.89,0,0,1,67,15a21.09,21.09,0,0,1,7.44-8.33A20.69,20.69,0,0,0,58.22,0,21.15,21.15,0,0,0,38,20.35L36.74,55.68a.05.05,0,0,1,0,0L32,57.85l10.08,5.5Z"/><path class="cls-2" d="M80.21,22.93l0-.39a22.75,22.75,0,0,0-.54-5.81A10.58,10.58,0,0,0,76,23.55l-.59,4.72A5.59,5.59,0,0,0,80.21,22.93Z"/><path class="cls-2" d="M35.55,331.53l-.24,0a2,2,0,0,0,.49-.09.86.86,0,0,1-.17,0Z"/><path class="cls-3" d="M37.79,329.7l.08-.23c0,.07,0,.13-.07.19A.08.08,0,0,0,37.79,329.7Z"/><path class="cls-3" d="M102.4,28.26l-1,4.66a5.59,5.59,0,0,0,5.29-4.9l0-.39a22.28,22.28,0,0,0,0-5.83A10.51,10.51,0,0,0,102.4,28.26Z"/><path class="cls-3" d="M35.31,331.57h0Z"/><path class="cls-3" d="M37.31,330.51l-.11.13Z"/><path class="cls-3" d="M36.9,330.92l-.1.08Z"/><path class="cls-3" d="M37.64,330a1.74,1.74,0,0,1-.11.18A1.74,1.74,0,0,0,37.64,330Z"/><path class="cls-3" d="M107.46,66.62a1.69,1.69,0,0,0-2-2.1L99.52,66l6.61,5.26Z"/><path class="cls-3" d="M36.41,331.24l-.08,0Z"/><path class="cls-3" d="M35.88,331.46l-.08,0Z"/><path class="cls-2" d="M37.51,330.23l0,0a1.74,1.74,0,0,0,.11-.18.36.36,0,0,0,0-.09A2.14,2.14,0,0,1,37.51,330.23Z"/><path class="cls-3" d="M37.51,330.23l0,0a1.74,1.74,0,0,0,.11-.18.36.36,0,0,0,0-.09A2.14,2.14,0,0,1,37.51,330.23Z"/><path class="cls-2" d="M35.63,331.51a.86.86,0,0,0,.17,0l.08,0,.22-.08A3.62,3.62,0,0,1,35.63,331.51Z"/><path class="cls-3" d="M35.63,331.51a.86.86,0,0,0,.17,0l.08,0,.22-.08A3.62,3.62,0,0,1,35.63,331.51Z"/><path class="cls-3" d="M86.78,3.28a21.22,21.22,0,0,0-21.89,18.5L60.53,56.86s0,0,0,0l-4.86,1.71L65.2,65h0l4.08-1,7.8-2-.74-.5L71.66,58.3s0,0,0,0l3.72-30L76,23.55a10.58,10.58,0,0,1,3.74-6.82,9.56,9.56,0,0,1,6.76-2.26A9.9,9.9,0,0,1,94.17,19a21.2,21.2,0,0,1,8.14-7.65A20.73,20.73,0,0,0,86.78,3.28Z"/><path class="cls-3" d="M42.14,63.35h0L32,57.85l-5.8-3.17a1.69,1.69,0,0,0-2.5,1.54l.16,5.32L31,294.76h0l-4.08,32.84a3,3,0,0,0,2.57,3.3l5.23.65a1.51,1.51,0,0,0,.3,0,2.64,2.64,0,0,1-.55-.06l-5.16-1.11A3,3,0,0,1,27,326.89l6.93-32.36h0l13.29-233Z"/><path class="cls-2" d="M35.05,331.57h.26l.24,0A2.74,2.74,0,0,1,35.05,331.57Z"/><path class="cls-3" d="M35.05,331.57h.26l.24,0A2.74,2.74,0,0,1,35.05,331.57Z"/><path class="cls-2" d="M36.18,331.34a.94.94,0,0,0,.15-.06l.08,0,.18-.11A3.17,3.17,0,0,1,36.18,331.34Z"/><path class="cls-3" d="M36.18,331.34a.94.94,0,0,0,.15-.06l.08,0,.18-.11A3.17,3.17,0,0,1,36.18,331.34Z"/><path class="cls-2" d="M37.8,329.66c0-.06.05-.12.07-.19a.13.13,0,0,1,0-.06A2.41,2.41,0,0,1,37.8,329.66Z"/><path class="cls-3" d="M37.8,329.66c0-.06.05-.12.07-.19a.13.13,0,0,1,0-.06A2.41,2.41,0,0,1,37.8,329.66Z"/><path class="cls-2" d="M36.69,331.07l.11-.07.1-.08.12-.12A2.16,2.16,0,0,1,36.69,331.07Z"/><path class="cls-3" d="M36.69,331.07l.11-.07.1-.08.12-.12A2.16,2.16,0,0,1,36.69,331.07Z"/><path class="cls-2" d="M37.14,330.69l.06-.05.11-.13a1,1,0,0,0,.08-.11A3.47,3.47,0,0,1,37.14,330.69Z"/><path class="cls-3" d="M37.14,330.69l.06-.05.11-.13a1,1,0,0,0,.08-.11A3.47,3.47,0,0,1,37.14,330.69Z"/><path class="cls-4" d="M115,9a21,21,0,0,0-12.64,2.3A21.2,21.2,0,0,0,94.17,19a20.88,20.88,0,0,0-2.64,6.57l-7.4,34.57h0a0,0,0,0,1,0,0l-7,1.79-7.8,2-4.08,1h0l-9.56-6.35L50.14,55a1.67,1.67,0,0,0-2.18.27,1.71,1.71,0,0,0-.45,1l-.3,5.31-13.29,233h0L27,326.89a3,3,0,0,0,2.27,3.51l5.16,1.11a2.64,2.64,0,0,0,.55.06h.08a2.74,2.74,0,0,0,.5,0l.08,0a3.62,3.62,0,0,0,.47-.13l.08,0a3.17,3.17,0,0,0,.41-.21l.1-.06a2.16,2.16,0,0,0,.33-.27l.12-.11a3.47,3.47,0,0,0,.25-.29l.12-.17a2.14,2.14,0,0,0,.17-.3l.06-.1s0-.09,0-.13a.08.08,0,0,1,0,0,2.41,2.41,0,0,0,.08-.25s0-.08,0-.12,0,0,0-.05l6.94-32.39h0L130,73.92a1.69,1.69,0,0,0-1.86-2.27l-17.85,3h0l-4.15-3.31L99.52,66l-4.43-3.53a0,0,0,0,1,0,0l6.33-29.55,1-4.66a10.51,10.51,0,0,1,4.31-6.46,9.64,9.64,0,0,1,6.93-1.67A10,10,0,0,1,121.9,32l-.16.74a5.8,5.8,0,0,0,3.75,6.79,5.6,5.6,0,0,0,7.14-4.17l.08-.39C135.34,22.73,127.4,10.67,115,9Z"/></g></g></svg>