<svg xmlns="http://www.w3.org/2000/svg" viewBox="0 0 134 134"><defs><style>.cls-1{opacity:0.2;}.cls-2{fill:#fff;}.cls-3{opacity:0.5;}.cls-4{fill:none;}</style></defs><title>umbrella</title><g id="レイヤー_2" data-name="レイヤー 2"><g id="レイヤー_1-2" data-name="レイヤー 1"><g class="cls-1"><path class="cls-2" d="M86.73,67.49l-4.53-.43.35.57,5.28,1h0A1.26,1.26,0,0,0,86.73,67.49Z"/><path class="cls-2" d="M42.56,50.62l-9-10.11a1.26,1.26,0,0,0-2.14.44L1,134h10L46.6,50.67l-4,0Z"/><path class="cls-2" d="M89.16,19.76A15.79,15.79,0,0,0,69.1,27.2L57.15,50.73s0,0,0,0l-3.85,0,5.11,6.89h0l4,.38,1.87-3.5a1.24,1.24,0,0,1,.62-.56L76.42,31.25a7.61,7.61,0,0,1,9.67-3.72,7.42,7.42,0,0,1,4.29,5.12A15.75,15.75,0,0,1,98,29.34,15.43,15.43,0,0,0,89.16,19.76Z"/><path class="cls-2" d="M93.8,41.26l-1.88,3a4.18,4.18,0,0,0,5-2.09l.13-.27a16.13,16.13,0,0,0,1.43-4.1A7.9,7.9,0,0,0,93.8,41.26Z"/></g><g class="cls-3"><path class="cls-2" d="M100.9,78.26l-4.47-.82,2.83,5.64,2.37-2.75A1.26,1.26,0,0,0,100.9,78.26Z"/><path class="cls-2" d="M107.49,30.92a15.83,15.83,0,0,0-17.11,1.73,15.52,15.52,0,0,0-3.52,3.94L72.9,59l0,0L69,58.64,73.52,66h0l9,1.67-.35-.57L80,63.46v0L91.92,44.27l1.88-3a7.9,7.9,0,0,1,4.64-3.45,7.21,7.21,0,0,1,5.31.59,7.42,7.42,0,0,1,3.83,5.47,15.86,15.86,0,0,1,7.9-2.63A15.45,15.45,0,0,0,107.49,30.92Z"/><path class="cls-2" d="M110.23,52.75l-2.13,2.83a4.17,4.17,0,0,0,5.12-1.65l.16-.25a16.45,16.45,0,0,0,1.78-4A8,8,0,0,0,110.23,52.75Z"/><path class="cls-2" d="M58.38,57.61l-5.11-6.89-2.94-4a1.25,1.25,0,0,0-2.17.25L46.6,50.67,11.05,134H21.81L62.4,58l-4-.38Z"/></g><path class="cls-2" d="M124.78,43.64a15.85,15.85,0,0,0-21,3.85L87.87,68.59h0l-5.28-1-9-1.67h0L69,58.64l-2.58-4.2a1.27,1.27,0,0,0-2.19.06L62.4,58,21.81,134H71.88l42.76-41.65a1.26,1.26,0,0,0-.55-2.12l-13-3.59a0,0,0,0,1,0,0l-1.78-3.54-2.83-5.64-1.89-3.78a0,0,0,0,1,0,0l13.56-18,2.13-2.83a8,8,0,0,1,4.93-3,7.2,7.2,0,0,1,5.24,1.05,7.41,7.41,0,0,1,1.87,10.65l-.35.46a4.31,4.31,0,0,0,.42,5.77,4.17,4.17,0,0,0,6.14-.58l.18-.24A16,16,0,0,0,124.78,43.64Z"/><rect class="cls-4" width="134" height="134"/></g></g></svg>