<svg xmlns="http://www.w3.org/2000/svg" viewBox="0 0 133.11 133.11"><defs><style>.cls-1{fill:none;}.cls-2{fill:#fb8;}.cls-3{fill:#ffe5d2;}.cls-4{fill:#fff;}</style></defs><title>umbrella</title><g id="レイヤー_2" data-name="レイヤー 2"><g id="レイヤー_1-2" data-name="レイヤー 1"><path class="cls-1" d="M72.42,58.6,86.28,36.35a15.72,15.72,0,0,1,3.5-3.92,7.36,7.36,0,0,0-4.26-5.08A7.57,7.57,0,0,0,75.91,31L64.46,53.58a1.26,1.26,0,0,1,1.56.5l2.56,4.17,3.8.37Z"/><path class="cls-1" d="M103.07,38.14a7.18,7.18,0,0,0-5.28-.58,16.36,16.36,0,0,1-1.42,4.08l-.13.26A4.14,4.14,0,0,1,91.31,44L79.46,63a0,0,0,0,0,0,0l2.2,3.58,4.49.42a1.24,1.24,0,0,1,1.12,1.1h0l15.75-21a15.72,15.72,0,0,1,3.83-3.6A7.4,7.4,0,0,0,103.07,38.14Z"/><path class="cls-2" d="M86.15,67l-4.49-.42.35.56,5.24,1s0,0,0,0A1.24,1.24,0,0,0,86.15,67Z"/><path class="cls-2" d="M42.31,50.3l0,0-8.9-10a1.26,1.26,0,0,0-2.13.44L1,133.11H11L46.29,50.33Z"/><path class="cls-2" d="M58,57.24l4,.38,1.86-3.48a1.29,1.29,0,0,1,.62-.56L75.91,31a7.57,7.57,0,0,1,9.61-3.69,7.36,7.36,0,0,1,4.26,5.08,15.66,15.66,0,0,1,7.59-3.28,15.32,15.32,0,0,0-8.8-9.52A15.69,15.69,0,0,0,68.64,27L56.77,50.4l0,0-3.82,0L58,57.23Z"/><path class="cls-2" d="M96.24,41.9l.13-.26a16.36,16.36,0,0,0,1.42-4.08A7.85,7.85,0,0,0,93.18,41l-1.87,3A4.14,4.14,0,0,0,96.24,41.9Z"/><path class="cls-3" d="M101,79.79a1.25,1.25,0,0,0-.72-2.05l-4.44-.81,2.81,5.6Z"/><path class="cls-3" d="M86.28,36.35,72.42,58.6l0,0-3.8-.37L73,65.51a0,0,0,0,0,0,0l9,1.65-.35-.56L79.46,63a0,0,0,0,1,0,0L91.31,44l1.87-3a7.85,7.85,0,0,1,4.61-3.43,7.18,7.18,0,0,1,5.28.58,7.4,7.4,0,0,1,3.8,5.44A15.66,15.66,0,0,1,114.71,41a15.3,15.3,0,0,0-7.93-10.25,15.75,15.75,0,0,0-17,1.71A15.72,15.72,0,0,0,86.28,36.35Z"/><path class="cls-3" d="M109.5,52.4l-2.11,2.81a4.13,4.13,0,0,0,5.08-1.63l.16-.25a16.68,16.68,0,0,0,1.77-3.94A7.9,7.9,0,0,0,109.5,52.4Z"/><path class="cls-3" d="M58,57.24h0l-5.07-6.84L50,46.45a1.25,1.25,0,0,0-2.16.25l-1.55,3.63L11,133.11h10.7L62,57.62Z"/><path class="cls-4" d="M124,43.36a15.72,15.72,0,0,0-17.08.22,15.72,15.72,0,0,0-3.83,3.6l-15.75,21h0s0,0,0,0l-5.24-1-9-1.65a0,0,0,0,1,0,0l-4.46-7.26L66,54.08a1.26,1.26,0,0,0-1.56-.5,1.29,1.29,0,0,0-.62.56L62,57.62,21.67,133.11H71.41l42.47-41.37a1.26,1.26,0,0,0-.55-2.11l-12.94-3.56,0,0-1.76-3.52-2.81-5.6-1.89-3.76a0,0,0,0,1,0,0l13.47-17.93,2.11-2.81a7.9,7.9,0,0,1,4.9-3,7.19,7.19,0,0,1,5.21,1A7.38,7.38,0,0,1,121.46,61l-.34.45a4.29,4.29,0,0,0,.41,5.74,4.14,4.14,0,0,0,6.1-.59l.18-.23A15.85,15.85,0,0,0,124,43.36Z"/><rect class="cls-1" width="133.11" height="133.11"/></g></g></svg>